<svg width="32" height="29" viewBox="0 0 32 29" fill="none" xmlns="http://www.w3.org/2000/svg">
<path d="M1.55276 0.348145H29.5025C29.9143 0.348145 30.3093 0.513391 30.6005 0.807532C30.8917 1.10167 31.0552 1.50061 31.0552 1.91659V27.0117C31.0552 27.4277 30.8917 27.8267 30.6005 28.1208C30.3093 28.4149 29.9143 28.5802 29.5025 28.5802H1.55276C1.14094 28.5802 0.745993 28.4149 0.454793 28.1208C0.163594 27.8267 0 27.4277 0 27.0117V1.91659C0 1.50061 0.163594 1.10167 0.454793 0.807532C0.745993 0.513391 1.14094 0.348145 1.55276 0.348145ZM3.10552 3.48504V25.4433H27.9497V3.48504H3.10552ZM10.093 17.6011H18.6331C18.8391 17.6011 19.0365 17.5184 19.1821 17.3714C19.3277 17.2243 19.4095 17.0248 19.4095 16.8168C19.4095 16.6088 19.3277 16.4094 19.1821 16.2623C19.0365 16.1152 18.8391 16.0326 18.6331 16.0326H12.4221C11.3926 16.0326 10.4052 15.6195 9.67718 14.8841C8.94918 14.1488 8.54019 13.1514 8.54019 12.1115C8.54019 11.0716 8.94918 10.0742 9.67718 9.33885C10.4052 8.60349 11.3926 8.19038 12.4221 8.19038H13.9749V5.05348H17.0804V8.19038H20.9623V11.3273H12.4221C12.2162 11.3273 12.0187 11.4099 11.8731 11.557C11.7275 11.704 11.6457 11.9035 11.6457 12.1115C11.6457 12.3195 11.7275 12.519 11.8731 12.666C12.0187 12.8131 12.2162 12.8957 12.4221 12.8957H18.6331C19.6627 12.8957 20.6501 13.3088 21.3781 14.0442C22.1061 14.7795 22.5151 15.7769 22.5151 16.8168C22.5151 17.8568 22.1061 18.8541 21.3781 19.5895C20.6501 20.3248 19.6627 20.738 18.6331 20.738H17.0804V23.8748H13.9749V20.738H10.093V17.6011Z" fill="#545454"/>
</svg>
